<svg width="21" height="22" viewBox="0 0 21 22" fill="none" xmlns="http://www.w3.org/2000/svg">
<path d="M1 5.5H19.8571" stroke="black" stroke-width="2" stroke-linecap="round" stroke-linejoin="round"/>
<path d="M3.35715 5.5H17.5V19.6429C17.5 20.0596 17.3344 20.4594 17.0397 20.754C16.7451 21.0487 16.3453 21.2143 15.9286 21.2143H4.92858C4.5118 21.2143 4.11211 21.0487 3.8174 20.754C3.52271 20.4594 3.35715 20.0596 3.35715 19.6429V5.5Z" stroke="black" stroke-width="2" stroke-linecap="round" stroke-linejoin="round"/>
<path d="M6.5 5.49993V4.71422C6.5 3.6723 6.9139 2.67304 7.65065 1.93629C8.3874 1.19955 9.38665 0.785645 10.4286 0.785645C11.4705 0.785645 12.4697 1.19955 13.2065 1.93629C13.9432 2.67304 14.3571 3.6723 14.3571 4.71422V5.49993" stroke="black" stroke-width="2" stroke-linecap="round" stroke-linejoin="round"/>
<path d="M8.07143 10.2163V16.5044" stroke="black" stroke-width="2" stroke-linecap="round" stroke-linejoin="round"/>
<path d="M12.7857 10.2163V16.5044" stroke="black" stroke-width="2" stroke-linecap="round" stroke-linejoin="round"/>
</svg>
